  0
SECTION
  2
HEADER
  9
$ACADVER
  1
AC1014
  9
$HANDSEED
  5
FFFF
  9
$MEASUREMENT
 70
     1
  0
ENDSEC
  0
SECTION
  2
TABLES
  0
TABLE
  2
VPORT
  5
8
330
0
100
AcDbSymbolTable
 70
     4
  0
VPORT
  5
2E
330
8
100
AcDbSymbolTableRecord
100
AcDbViewportTableRecord
  2
*ACTIVE
 70
     0
 10
0.0
 20
0.0
 11
1.0
 21
1.0
 12
210.0
 22
148.5
 13
0.0
 23
0.0
 14
10.0
 24
10.0
 15
10.0
 25
10.0
 16
0.0
 26
0.0
 36
1.0
 17
0.0
 27
0.0
 37
0.0
 40
341.0
 41
1.24
 42
50.0
 43
0.0
 44
0.0
 50
0.0
 51
0.0
 71
     0
 72
   100
 73
     1
 74
     3
 75
     0
 76
     0
 77
     0
 78
     0
  0
ENDTAB
  0
TABLE
  2
LTYPE
  5
5
330
0
100
AcDbSymbolTable
 70
     1
  0
LTYPE
  5
14
330
5
100
AcDbSymbolTableRecord
100
AcDbLinetypeTableRecord
  2
BYBLOCK
 70
     0
  3

 72
    65
 73
     0
 40
0.0
  0
LTYPE
  5
15
330
5
100
AcDbSymbolTableRecord
100
AcDbLinetypeTableRecord
  2
BYLAYER
 70
     0
  3

 72
    65
 73
     0
 40
0.0
  0
LTYPE
  5
16
330
5
100
AcDbSymbolTableRecord
100
AcDbLinetypeTableRecord
  2
CONTINUOUS
 70
     0
  3
Solid line
 72
    65
 73
     0
 40
0.0
  0
ENDTAB
  0
TABLE
  2
LAYER
  5
2
100
AcDbSymbolTable
 70
5
  0
LAYER
  5
50
100
AcDbSymbolTableRecord
100
AcDbLayerTableRecord
  2
0
 70
0
  6
CONTINUOUS
  0
LAYER
  5
51
100
AcDbSymbolTableRecord
100
AcDbLayerTableRecord
  2
mfos_vco_VI_panel_2
 70
0
  6
CONTINUOUS
  0
LAYER
  5
52
100
AcDbSymbolTableRecord
100
AcDbLayerTableRecord
  2
holes
 70
0
  6
CONTINUOUS
  0
LAYER
  5
53
100
AcDbSymbolTableRecord
100
AcDbLayerTableRecord
  2
text
 70
0
  6
CONTINUOUS
  0
LAYER
  5
54
100
AcDbSymbolTableRecord
100
AcDbLayerTableRecord
  2
overlay#1
 70
0
  6
CONTINUOUS
  0
ENDTAB
  0
TABLE
  2
STYLE
  5
3
330
0
100
AcDbSymbolTable
 70
     1
  0
STYLE
  5
11
330
3
100
AcDbSymbolTableRecord
100
AcDbTextStyleTableRecord
  2
STANDARD
 70
     0
 40
0.0
 41
1.0
 50
0.0
 71
     0
 42
2.5
  3
txt
  4

  0
ENDTAB
  0
TABLE
  2
VIEW
  5
6
330
0
100
AcDbSymbolTable
 70
     0
  0
ENDTAB
  0
TABLE
  2
UCS
  5
7
330
0
100
AcDbSymbolTable
 70
     0
  0
ENDTAB
  0
TABLE
  2
APPID
  5
9
330
0
100
AcDbSymbolTable
 70
     2
  0
APPID
  5
12
330
9
100
AcDbSymbolTableRecord
100
AcDbRegAppTableRecord
  2
ACAD
 70
     0
  0
ENDTAB
  0
TABLE
  2
DIMSTYLE
  5
A
330
0
100
AcDbSymbolTable
 70
     1
  0
DIMSTYLE
105
27
330
A
100
AcDbSymbolTableRecord
100
AcDbDimStyleTableRecord
  2
ISO-25
 70
     0
  3

  4

  5

  6

  7

 40
1.0
 41
2.5
 42
0.625
 43
3.75
 44
1.25
 45
0.0
 46
0.0
 47
0.0
 48
0.0
140
2.5
141
2.5
142
0.0
143
0.03937007874016
144
1.0
145
0.0
146
1.0
147
0.625
 71
     0
 72
     0
 73
     0
 74
     0
 75
     0
 76
     0
 77
     1
 78
     8
170
     0
171
     3
172
     1
173
     0
174
     0
175
     0
176
     0
177
     0
178
     0
270
     2
271
     2
272
     2
273
     2
274
     3
340
11
275
     0
280
     0
281
     0
282
     0
283
     0
284
     8
285
     0
286
     0
287
     3
288
     0
  0
ENDTAB
  0
TABLE
  2
BLOCK_RECORD
  5
1
330
0
100
AcDbSymbolTable
 70
     1
  0
BLOCK_RECORD
  5
1F
330
1
100
AcDbSymbolTableRecord
100
AcDbBlockTableRecord
  2
*MODEL_SPACE
  0
BLOCK_RECORD
  5
1B
330
1
100
AcDbSymbolTableRecord
100
AcDbBlockTableRecord
  2
*PAPER_SPACE
  0
ENDTAB
  0
ENDSEC
  0
SECTION
  2
BLOCKS
  0
BLOCK
  5
20
330
1F
100
AcDbEntity
  8
0
100
AcDbBlockBegin
  2
*MODEL_SPACE
 70
     0
 10
0.0
 20
0.0
 30
0.0
  3
*MODEL_SPACE
  1

  0
ENDBLK
  5
21
330
1F
100
AcDbEntity
  8
0
100
AcDbBlockEnd
  0
BLOCK
  5
1C
330
1B
100
AcDbEntity
 67
     1
  8
0
100
AcDbBlockBegin
  2
*PAPER_SPACE
  1

  0
ENDBLK
  5
1D
330
1B
100
AcDbEntity
 67
     1
  8
0
100
AcDbBlockEnd
  0
ENDSEC
  0
SECTION
  2
ENTITIES
  0
LWPOLYLINE
  5
100
100
AcDbEntity
  8
text
 62
1
100
AcDbPolyline
 90
5
 70
1
 10
4.399403
 20
275.325630
 30
0.0
 10
207.608361
 20
275.325630
 30
0.0
 10
207.608361
 20
8.132912
 30
0.0
 10
4.399403
 20
8.132912
 30
0.0
 10
4.399403
 20
275.325630
 30
0.0
  0
SPLINE
  5
101
100
AcDbEntity
  8
text
 62
1
100
AcDbSpline
 70
8
 71
3
 72
8
 73
4
 74
0
 40
0
 40
0
 40
0
 40
0
 40
1
 40
1
 40
1
 40
1
 10
24.596519
 20
232.291953
 30
0.0
 10
24.596519
 20
234.062898
 30
0.0
 10
25.777619
 20
235.243645
 30
0.0
 10
27.548563
 20
235.243645
 30
0.0
  0
SPLINE
  5
102
100
AcDbEntity
  8
text
 62
1
100
AcDbSpline
 70
8
 71
3
 72
8
 73
4
 74
0
 40
0
 40
0
 40
0
 40
0
 40
1
 40
1
 40
1
 40
1
 10
27.548563
 20
235.243645
 30
0.0
 10
29.320566
 20
235.243645
 30
0.0
 10
30.500255
 20
234.062898
 30
0.0
 10
30.500255
 20
232.291953
 30
0.0
  0
SPLINE
  5
103
100
AcDbEntity
  8
text
 62
1
100
AcDbSpline
 70
8
 71
3
 72
8
 73
4
 74
0
 40
0
 40
0
 40
0
 40
0
 40
1
 40
1
 40
1
 40
1
 10
30.500255
 20
232.291953
 30
0.0
 10
30.500255
 20
230.521362
 30
0.0
 10
29.320566
 20
229.340262
 30
0.0
 10
27.548563
 20
229.340262
 30
0.0
  0
SPLINE
  5
104
100
AcDbEntity
  8
text
 62
1
100
AcDbSpline
 70
8
 71
3
 72
8
 73
4
 74
0
 40
0
 40
0
 40
0
 40
0
 40
1
 40
1
 40
1
 40
1
 10
27.548563
 20
229.340262
 30
0.0
 10
25.777619
 20
229.340262
 30
0.0
 10
24.596519
 20
230.521362
 30
0.0
 10
24.596519
 20
232.291953
 30
0.0
  0
LWPOLYLINE
  5
105
100
AcDbEntity
  8
text
 62
1
100
AcDbPolyline
 90
6
 70
0
 10
27.785327
 20
143.797089
 30
0.0
 10
17.805714
 20
143.797089
 30
0.0
 10
17.805714
 20
271.959279
 30
0.0
 10
45.438506
 20
271.959279
 30
0.0
 10
45.438506
 20
143.797089
 30
0.0
 10
17.805714
 20
143.797089
 30
0.0
  0
LWPOLYLINE
  5
106
100
AcDbEntity
  8
text
 62
1
100
AcDbPolyline
 90
2
 70
0
 10
26.368875
 20
232.291953
 30
0.0
 10
28.729311
 20
232.291953
 30
0.0
  0
SPLINE
  5
107
100
AcDbEntity
  8
text
 62
1
100
AcDbSpline
 70
8
 71
3
 72
8
 73
4
 74
0
 40
0
 40
0
 40
0
 40
0
 40
1
 40
1
 40
1
 40
1
 10
24.647319
 20
184.093842
 30
0.0
 10
24.647319
 20
185.864786
 30
0.0
 10
25.828419
 20
187.045534
 30
0.0
 10
27.599363
 20
187.045534
 30
0.0
  0
SPLINE
  5
108
100
AcDbEntity
  8
text
 62
1
100
AcDbSpline
 70
8
 71
3
 72
8
 73
4
 74
0
 40
0
 40
0
 40
0
 40
0
 40
1
 40
1
 40
1
 40
1
 10
27.599363
 20
187.045534
 30
0.0
 10
29.371366
 20
187.045534
 30
0.0
 10
30.551055
 20
185.864786
 30
0.0
 10
30.551055
 20
184.093842
 30
0.0
  0
SPLINE
  5
109
100
AcDbEntity
  8
text
 62
1
100
AcDbSpline
 70
8
 71
3
 72
8
 73
4
 74
0
 40
0
 40
0
 40
0
 40
0
 40
1
 40
1
 40
1
 40
1
 10
30.551055
 20
184.093842
 30
0.0
 10
30.551055
 20
182.323250
 30
0.0
 10
29.371366
 20
181.142150
 30
0.0
 10
27.599363
 20
181.142150
 30
0.0
  0
SPLINE
  5
10a
100
AcDbEntity
  8
text
 62
1
100
AcDbSpline
 70
8
 71
3
 72
8
 73
4
 74
0
 40
0
 40
0
 40
0
 40
0
 40
1
 40
1
 40
1
 40
1
 10
27.599363
 20
181.142150
 30
0.0
 10
25.828419
 20
181.142150
 30
0.0
 10
24.647319
 20
182.323250
 30
0.0
 10
24.647319
 20
184.093842
 30
0.0
  0
LWPOLYLINE
  5
10b
100
AcDbEntity
  8
text
 62
1
100
AcDbPolyline
 90
2
 70
0
 10
27.548563
 20
231.111206
 30
0.0
 10
27.548563
 20
233.473053
 30
0.0
  0
LWPOLYLINE
  5
10c
100
AcDbEntity
  8
text
 62
1
100
AcDbPolyline
 90
2
 70
0
 10
26.419675
 20
184.093842
 30
0.0
 10
28.780111
 20
184.093842
 30
0.0
  0
SPLINE
  5
10d
100
AcDbEntity
  8
text
 62
1
100
AcDbSpline
 70
8
 71
3
 72
8
 73
4
 74
0
 40
0
 40
0
 40
0
 40
0
 40
1
 40
1
 40
1
 40
1
 10
32.498741
 20
200.664435
 30
0.0
 10
32.498741
 20
202.435379
 30
0.0
 10
33.679841
 20
203.616127
 30
0.0
 10
35.450786
 20
203.616127
 30
0.0
  0
SPLINE
  5
10e
100
AcDbEntity
  8
text
 62
1
100
AcDbSpline
 70
8
 71
3
 72
8
 73
4
 74
0
 40
0
 40
0
 40
0
 40
0
 40
1
 40
1
 40
1
 40
1
 10
35.450786
 20
203.616127
 30
0.0
 10
37.222788
 20
203.616127
 30
0.0
 10
38.402477
 20
202.435379
 30
0.0
 10
38.402477
 20
200.664435
 30
0.0
  0
SPLINE
  5
10f
100
AcDbEntity
  8
text
 62
1
100
AcDbSpline
 70
8
 71
3
 72
8
 73
4
 74
0
 40
0
 40
0
 40
0
 40
0
 40
1
 40
1
 40
1
 40
1
 10
38.402477
 20
200.664435
 30
0.0
 10
38.402477
 20
198.893843
 30
0.0
 10
37.222788
 20
197.712743
 30
0.0
 10
35.450786
 20
197.712743
 30
0.0
  0
SPLINE
  5
110
100
AcDbEntity
  8
text
 62
1
100
AcDbSpline
 70
8
 71
3
 72
8
 73
4
 74
0
 40
0
 40
0
 40
0
 40
0
 40
1
 40
1
 40
1
 40
1
 10
35.450786
 20
197.712743
 30
0.0
 10
33.679841
 20
197.712743
 30
0.0
 10
32.498741
 20
198.893843
 30
0.0
 10
32.498741
 20
200.664435
 30
0.0
  0
LWPOLYLINE
  5
111
100
AcDbEntity
  8
text
 62
1
100
AcDbPolyline
 90
2
 70
0
 10
27.599363
 20
182.913095
 30
0.0
 10
27.599363
 20
185.274942
 30
0.0
  0
LWPOLYLINE
  5
112
100
AcDbEntity
  8
text
 62
1
100
AcDbPolyline
 90
2
 70
0
 10
34.271097
 20
200.664435
 30
0.0
 10
36.631533
 20
200.664435
 30
0.0
  0
SPLINE
  5
113
100
AcDbEntity
  8
text
 62
1
100
AcDbSpline
 70
8
 71
3
 72
8
 73
4
 74
0
 40
0
 40
0
 40
0
 40
0
 40
1
 40
1
 40
1
 40
1
 10
24.647319
 20
218.324841
 30
0.0
 10
24.647319
 20
220.095785
 30
0.0
 10
25.828419
 20
221.276532
 30
0.0
 10
27.599363
 20
221.276532
 30
0.0
  0
SPLINE
  5
114
100
AcDbEntity
  8
text
 62
1
100
AcDbSpline
 70
8
 71
3
 72
8
 73
4
 74
0
 40
0
 40
0
 40
0
 40
0
 40
1
 40
1
 40
1
 40
1
 10
27.599363
 20
221.276532
 30
0.0
 10
29.371366
 20
221.276532
 30
0.0
 10
30.551055
 20
220.095785
 30
0.0
 10
30.551055
 20
218.324841
 30
0.0
  0
SPLINE
  5
115
100
AcDbEntity
  8
text
 62
1
100
AcDbSpline
 70
8
 71
3
 72
8
 73
4
 74
0
 40
0
 40
0
 40
0
 40
0
 40
1
 40
1
 40
1
 40
1
 10
30.551055
 20
218.324841
 30
0.0
 10
30.551055
 20
216.554249
 30
0.0
 10
29.371366
 20
215.373149
 30
0.0
 10
27.599363
 20
215.373149
 30
0.0
  0
SPLINE
  5
116
100
AcDbEntity
  8
text
 62
1
100
AcDbSpline
 70
8
 71
3
 72
8
 73
4
 74
0
 40
0
 40
0
 40
0
 40
0
 40
1
 40
1
 40
1
 40
1
 10
27.599363
 20
215.373149
 30
0.0
 10
25.828419
 20
215.373149
 30
0.0
 10
24.647319
 20
216.554249
 30
0.0
 10
24.647319
 20
218.324841
 30
0.0
  0
LWPOLYLINE
  5
117
100
AcDbEntity
  8
text
 62
1
100
AcDbPolyline
 90
2
 70
0
 10
35.450786
 20
199.483688
 30
0.0
 10
35.450786
 20
201.845535
 30
0.0
  0
LWPOLYLINE
  5
118
100
AcDbEntity
  8
text
 62
1
100
AcDbPolyline
 90
2
 70
0
 10
26.419675
 20
218.324841
 30
0.0
 10
28.780111
 20
218.324841
 30
0.0
  0
LWPOLYLINE
  5
119
100
AcDbEntity
  8
text
 62
1
100
AcDbPolyline
 90
2
 70
0
 10
27.599363
 20
217.144093
 30
0.0
 10
27.599363
 20
219.505941
 30
0.0
  0
SPLINE
  5
11a
100
AcDbEntity
  8
text
 62
1
100
AcDbSpline
 70
8
 71
3
 72
8
 73
4
 74
0
 40
0
 40
0
 40
0
 40
0
 40
1
 40
1
 40
1
 40
1
 10
55.640963
 20
232.291953
 30
0.0
 10
55.640963
 20
234.062898
 30
0.0
 10
56.822063
 20
235.243645
 30
0.0
 10
58.593008
 20
235.243645
 30
0.0
  0
SPLINE
  5
11b
100
AcDbEntity
  8
text
 62
1
100
AcDbSpline
 70
8
 71
3
 72
8
 73
4
 74
0
 40
0
 40
0
 40
0
 40
0
 40
1
 40
1
 40
1
 40
1
 10
58.593008
 20
235.243645
 30
0.0
 10
60.365011
 20
235.243645
 30
0.0
 10
61.544700
 20
234.062898
 30
0.0
 10
61.544700
 20
232.291953
 30
0.0
  0
SPLINE
  5
11c
100
AcDbEntity
  8
text
 62
1
100
AcDbSpline
 70
8
 71
3
 72
8
 73
4
 74
0
 40
0
 40
0
 40
0
 40
0
 40
1
 40
1
 40
1
 40
1
 10
61.544700
 20
232.291953
 30
0.0
 10
61.544700
 20
230.521362
 30
0.0
 10
60.365011
 20
229.340262
 30
0.0
 10
58.593008
 20
229.340262
 30
0.0
  0
SPLINE
  5
11d
100
AcDbEntity
  8
text
 62
1
100
AcDbSpline
 70
8
 71
3
 72
8
 73
4
 74
0
 40
0
 40
0
 40
0
 40
0
 40
1
 40
1
 40
1
 40
1
 10
58.593008
 20
229.340262
 30
0.0
 10
56.822063
 20
229.340262
 30
0.0
 10
55.640963
 20
230.521362
 30
0.0
 10
55.640963
 20
232.291953
 30
0.0
  0
LWPOLYLINE
  5
11e
100
AcDbEntity
  8
text
 62
1
100
AcDbPolyline
 90
6
 70
0
 10
58.829771
 20
143.797089
 30
0.0
 10
48.850158
 20
143.797089
 30
0.0
 10
48.850158
 20
271.959279
 30
0.0
 10
76.482950
 20
271.959279
 30
0.0
 10
76.482950
 20
143.797089
 30
0.0
 10
48.850158
 20
143.797089
 30
0.0
  0
LWPOLYLINE
  5
11f
100
AcDbEntity
  8
text
 62
1
100
AcDbPolyline
 90
2
 70
0
 10
57.413319
 20
232.291953
 30
0.0
 10
59.773755
 20
232.291953
 30
0.0
  0
SPLINE
  5
120
100
AcDbEntity
  8
text
 62
1
100
AcDbSpline
 70
8
 71
3
 72
8
 73
4
 74
0
 40
0
 40
0
 40
0
 40
0
 40
1
 40
1
 40
1
 40
1
 10
55.691763
 20
184.093842
 30
0.0
 10
55.691763
 20
185.864786
 30
0.0
 10
56.872863
 20
187.045534
 30
0.0
 10
58.643808
 20
187.045534
 30
0.0
  0
SPLINE
  5
121
100
AcDbEntity
  8
text
 62
1
100
AcDbSpline
 70
8
 71
3
 72
8
 73
4
 74
0
 40
0
 40
0
 40
0
 40
0
 40
1
 40
1
 40
1
 40
1
 10
58.643808
 20
187.045534
 30
0.0
 10
60.415811
 20
187.045534
 30
0.0
 10
61.595500
 20
185.864786
 30
0.0
 10
61.595500
 20
184.093842
 30
0.0
  0
SPLINE
  5
122
100
AcDbEntity
  8
text
 62
1
100
AcDbSpline
 70
8
 71
3
 72
8
 73
4
 74
0
 40
0
 40
0
 40
0
 40
0
 40
1
 40
1
 40
1
 40
1
 10
61.595500
 20
184.093842
 30
0.0
 10
61.595500
 20
182.323250
 30
0.0
 10
60.415811
 20
181.142150
 30
0.0
 10
58.643808
 20
181.142150
 30
0.0
  0
SPLINE
  5
123
100
AcDbEntity
  8
text
 62
1
100
AcDbSpline
 70
8
 71
3
 72
8
 73
4
 74
0
 40
0
 40
0
 40
0
 40
0
 40
1
 40
1
 40
1
 40
1
 10
58.643808
 20
181.142150
 30
0.0
 10
56.872863
 20
181.142150
 30
0.0
 10
55.691763
 20
182.323250
 30
0.0
 10
55.691763
 20
184.093842
 30
0.0
  0
LWPOLYLINE
  5
124
100
AcDbEntity
  8
text
 62
1
100
AcDbPolyline
 90
2
 70
0
 10
58.593008
 20
231.111206
 30
0.0
 10
58.593008
 20
233.473053
 30
0.0
  0
LWPOLYLINE
  5
125
100
AcDbEntity
  8
text
 62
1
100
AcDbPolyline
 90
2
 70
0
 10
57.464119
 20
184.093842
 30
0.0
 10
59.824555
 20
184.093842
 30
0.0
  0
SPLINE
  5
126
100
AcDbEntity
  8
text
 62
1
100
AcDbSpline
 70
8
 71
3
 72
8
 73
4
 74
0
 40
0
 40
0
 40
0
 40
0
 40
1
 40
1
 40
1
 40
1
 10
63.543186
 20
200.664435
 30
0.0
 10
63.543186
 20
202.435379
 30
0.0
 10
64.724286
 20
203.616127
 30
0.0
 10
66.495230
 20
203.616127
 30
0.0
  0
SPLINE
  5
127
100
AcDbEntity
  8
text
 62
1
100
AcDbSpline
 70
8
 71
3
 72
8
 73
4
 74
0
 40
0
 40
0
 40
0
 40
0
 40
1
 40
1
 40
1
 40
1
 10
66.495230
 20
203.616127
 30
0.0
 10
68.267233
 20
203.616127
 30
0.0
 10
69.446922
 20
202.435379
 30
0.0
 10
69.446922
 20
200.664435
 30
0.0
  0
SPLINE
  5
128
100
AcDbEntity
  8
text
 62
1
100
AcDbSpline
 70
8
 71
3
 72
8
 73
4
 74
0
 40
0
 40
0
 40
0
 40
0
 40
1
 40
1
 40
1
 40
1
 10
69.446922
 20
200.664435
 30
0.0
 10
69.446922
 20
198.893843
 30
0.0
 10
68.267233
 20
197.712743
 30
0.0
 10
66.495230
 20
197.712743
 30
0.0
  0
SPLINE
  5
129
100
AcDbEntity
  8
text
 62
1
100
AcDbSpline
 70
8
 71
3
 72
8
 73
4
 74
0
 40
0
 40
0
 40
0
 40
0
 40
1
 40
1
 40
1
 40
1
 10
66.495230
 20
197.712743
 30
0.0
 10
64.724286
 20
197.712743
 30
0.0
 10
63.543186
 20
198.893843
 30
0.0
 10
63.543186
 20
200.664435
 30
0.0
  0
LWPOLYLINE
  5
12a
100
AcDbEntity
  8
text
 62
1
100
AcDbPolyline
 90
2
 70
0
 10
58.643808
 20
182.913095
 30
0.0
 10
58.643808
 20
185.274942
 30
0.0
  0
LWPOLYLINE
  5
12b
100
AcDbEntity
  8
text
 62
1
100
AcDbPolyline
 90
2
 70
0
 10
65.315541
 20
200.664435
 30
0.0
 10
67.675977
 20
200.664435
 30
0.0
  0
SPLINE
  5
12c
100
AcDbEntity
  8
text
 62
1
100
AcDbSpline
 70
8
 71
3
 72
8
 73
4
 74
0
 40
0
 40
0
 40
0
 40
0
 40
1
 40
1
 40
1
 40
1
 10
55.691763
 20
218.324841
 30
0.0
 10
55.691763
 20
220.095785
 30
0.0
 10
56.872863
 20
221.276532
 30
0.0
 10
58.643808
 20
221.276532
 30
0.0
  0
SPLINE
  5
12d
100
AcDbEntity
  8
text
 62
1
100
AcDbSpline
 70
8
 71
3
 72
8
 73
4
 74
0
 40
0
 40
0
 40
0
 40
0
 40
1
 40
1
 40
1
 40
1
 10
58.643808
 20
221.276532
 30
0.0
 10
60.415811
 20
221.276532
 30
0.0
 10
61.595500
 20
220.095785
 30
0.0
 10
61.595500
 20
218.324841
 30
0.0
  0
SPLINE
  5
12e
100
AcDbEntity
  8
text
 62
1
100
AcDbSpline
 70
8
 71
3
 72
8
 73
4
 74
0
 40
0
 40
0
 40
0
 40
0
 40
1
 40
1
 40
1
 40
1
 10
61.595500
 20
218.324841
 30
0.0
 10
61.595500
 20
216.554249
 30
0.0
 10
60.415811
 20
215.373149
 30
0.0
 10
58.643808
 20
215.373149
 30
0.0
  0
SPLINE
  5
12f
100
AcDbEntity
  8
text
 62
1
100
AcDbSpline
 70
8
 71
3
 72
8
 73
4
 74
0
 40
0
 40
0
 40
0
 40
0
 40
1
 40
1
 40
1
 40
1
 10
58.643808
 20
215.373149
 30
0.0
 10
56.872863
 20
215.373149
 30
0.0
 10
55.691763
 20
216.554249
 30
0.0
 10
55.691763
 20
218.324841
 30
0.0
  0
LWPOLYLINE
  5
130
100
AcDbEntity
  8
text
 62
1
100
AcDbPolyline
 90
2
 70
0
 10
66.495230
 20
199.483688
 30
0.0
 10
66.495230
 20
201.845535
 30
0.0
  0
LWPOLYLINE
  5
131
100
AcDbEntity
  8
text
 62
1
100
AcDbPolyline
 90
2
 70
0
 10
57.464119
 20
218.324841
 30
0.0
 10
59.824555
 20
218.324841
 30
0.0
  0
LWPOLYLINE
  5
132
100
AcDbEntity
  8
text
 62
1
100
AcDbPolyline
 90
2
 70
0
 10
58.643808
 20
217.144093
 30
0.0
 10
58.643808
 20
219.505941
 30
0.0
  0
SPLINE
  5
133
100
AcDbEntity
  8
text
 62
1
100
AcDbSpline
 70
8
 71
3
 72
8
 73
4
 74
0
 40
0
 40
0
 40
0
 40
0
 40
1
 40
1
 40
1
 40
1
 10
86.685408
 20
232.291953
 30
0.0
 10
86.685408
 20
234.062898
 30
0.0
 10
87.866508
 20
235.243645
 30
0.0
 10
89.637452
 20
235.243645
 30
0.0
  0
SPLINE
  5
134
100
AcDbEntity
  8
text
 62
1
100
AcDbSpline
 70
8
 71
3
 72
8
 73
4
 74
0
 40
0
 40
0
 40
0
 40
0
 40
1
 40
1
 40
1
 40
1
 10
89.637452
 20
235.243645
 30
0.0
 10
91.409455
 20
235.243645
 30
0.0
 10
92.589144
 20
234.062898
 30
0.0
 10
92.589144
 20
232.291953
 30
0.0
  0
SPLINE
  5
135
100
AcDbEntity
  8
text
 62
1
100
AcDbSpline
 70
8
 71
3
 72
8
 73
4
 74
0
 40
0
 40
0
 40
0
 40
0
 40
1
 40
1
 40
1
 40
1
 10
92.589144
 20
232.291953
 30
0.0
 10
92.589144
 20
230.521362
 30
0.0
 10
91.409455
 20
229.340262
 30
0.0
 10
89.637452
 20
229.340262
 30
0.0
  0
SPLINE
  5
136
100
AcDbEntity
  8
text
 62
1
100
AcDbSpline
 70
8
 71
3
 72
8
 73
4
 74
0
 40
0
 40
0
 40
0
 40
0
 40
1
 40
1
 40
1
 40
1
 10
89.637452
 20
229.340262
 30
0.0
 10
87.866508
 20
229.340262
 30
0.0
 10
86.685408
 20
230.521362
 30
0.0
 10
86.685408
 20
232.291953
 30
0.0
  0
LWPOLYLINE
  5
137
100
AcDbEntity
  8
text
 62
1
100
AcDbPolyline
 90
6
 70
0
 10
89.874216
 20
143.797089
 30
0.0
 10
79.894602
 20
143.797089
 30
0.0
 10
79.894602
 20
271.959279
 30
0.0
 10
107.527395
 20
271.959279
 30
0.0
 10
107.527395
 20
143.797089
 30
0.0
 10
79.894602
 20
143.797089
 30
0.0
  0
LWPOLYLINE
  5
138
100
AcDbEntity
  8
text
 62
1
100
AcDbPolyline
 90
2
 70
0
 10
88.457763
 20
232.291953
 30
0.0
 10
90.818200
 20
232.291953
 30
0.0
  0
SPLINE
  5
139
100
AcDbEntity
  8
text
 62
1
100
AcDbSpline
 70
8
 71
3
 72
8
 73
4
 74
0
 40
0
 40
0
 40
0
 40
0
 40
1
 40
1
 40
1
 40
1
 10
86.736208
 20
184.093842
 30
0.0
 10
86.736208
 20
185.864786
 30
0.0
 10
87.917308
 20
187.045534
 30
0.0
 10
89.688252
 20
187.045534
 30
0.0
  0
SPLINE
  5
13a
100
AcDbEntity
  8
text
 62
1
100
AcDbSpline
 70
8
 71
3
 72
8
 73
4
 74
0
 40
0
 40
0
 40
0
 40
0
 40
1
 40
1
 40
1
 40
1
 10
89.688252
 20
187.045534
 30
0.0
 10
91.460255
 20
187.045534
 30
0.0
 10
92.639944
 20
185.864786
 30
0.0
 10
92.639944
 20
184.093842
 30
0.0
  0
SPLINE
  5
13b
100
AcDbEntity
  8
text
 62
1
100
AcDbSpline
 70
8
 71
3
 72
8
 73
4
 74
0
 40
0
 40
0
 40
0
 40
0
 40
1
 40
1
 40
1
 40
1
 10
92.639944
 20
184.093842
 30
0.0
 10
92.639944
 20
182.323250
 30
0.0
 10
91.460255
 20
181.142150
 30
0.0
 10
89.688252
 20
181.142150
 30
0.0
  0
SPLINE
  5
13c
100
AcDbEntity
  8
text
 62
1
100
AcDbSpline
 70
8
 71
3
 72
8
 73
4
 74
0
 40
0
 40
0
 40
0
 40
0
 40
1
 40
1
 40
1
 40
1
 10
89.688252
 20
181.142150
 30
0.0
 10
87.917308
 20
181.142150
 30
0.0
 10
86.736208
 20
182.323250
 30
0.0
 10
86.736208
 20
184.093842
 30
0.0
  0
LWPOLYLINE
  5
13d
100
AcDbEntity
  8
text
 62
1
100
AcDbPolyline
 90
2
 70
0
 10
89.637452
 20
231.111206
 30
0.0
 10
89.637452
 20
233.473053
 30
0.0
  0
LWPOLYLINE
  5
13e
100
AcDbEntity
  8
text
 62
1
100
AcDbPolyline
 90
2
 70
0
 10
88.508563
 20
184.093842
 30
0.0
 10
90.869000
 20
184.093842
 30
0.0
  0
SPLINE
  5
13f
100
AcDbEntity
  8
text
 62
1
100
AcDbSpline
 70
8
 71
3
 72
8
 73
4
 74
0
 40
0
 40
0
 40
0
 40
0
 40
1
 40
1
 40
1
 40
1
 10
94.587630
 20
200.664435
 30
0.0
 10
94.587630
 20
202.435379
 30
0.0
 10
95.768730
 20
203.616127
 30
0.0
 10
97.539675
 20
203.616127
 30
0.0
  0
SPLINE
  5
140
100
AcDbEntity
  8
text
 62
1
100
AcDbSpline
 70
8
 71
3
 72
8
 73
4
 74
0
 40
0
 40
0
 40
0
 40
0
 40
1
 40
1
 40
1
 40
1
 10
97.539675
 20
203.616127
 30
0.0
 10
99.311677
 20
203.616127
 30
0.0
 10
100.491366
 20
202.435379
 30
0.0
 10
100.491366
 20
200.664435
 30
0.0
  0
SPLINE
  5
141
100
AcDbEntity
  8
text
 62
1
100
AcDbSpline
 70
8
 71
3
 72
8
 73
4
 74
0
 40
0
 40
0
 40
0
 40
0
 40
1
 40
1
 40
1
 40
1
 10
100.491366
 20
200.664435
 30
0.0
 10
100.491366
 20
198.893843
 30
0.0
 10
99.311677
 20
197.712743
 30
0.0
 10
97.539675
 20
197.712743
 30
0.0
  0
SPLINE
  5
142
100
AcDbEntity
  8
text
 62
1
100
AcDbSpline
 70
8
 71
3
 72
8
 73
4
 74
0
 40
0
 40
0
 40
0
 40
0
 40
1
 40
1
 40
1
 40
1
 10
97.539675
 20
197.712743
 30
0.0
 10
95.768730
 20
197.712743
 30
0.0
 10
94.587630
 20
198.893843
 30
0.0
 10
94.587630
 20
200.664435
 30
0.0
  0
LWPOLYLINE
  5
143
100
AcDbEntity
  8
text
 62
1
100
AcDbPolyline
 90
2
 70
0
 10
89.688252
 20
182.913095
 30
0.0
 10
89.688252
 20
185.274942
 30
0.0
  0
LWPOLYLINE
  5
144
100
AcDbEntity
  8
text
 62
1
100
AcDbPolyline
 90
2
 70
0
 10
96.359986
 20
200.664435
 30
0.0
 10
98.720422
 20
200.664435
 30
0.0
  0
SPLINE
  5
145
100
AcDbEntity
  8
text
 62
1
100
AcDbSpline
 70
8
 71
3
 72
8
 73
4
 74
0
 40
0
 40
0
 40
0
 40
0
 40
1
 40
1
 40
1
 40
1
 10
86.736208
 20
218.324841
 30
0.0
 10
86.736208
 20
220.095785
 30
0.0
 10
87.917308
 20
221.276532
 30
0.0
 10
89.688252
 20
221.276532
 30
0.0
  0
SPLINE
  5
146
100
AcDbEntity
  8
text
 62
1
100
AcDbSpline
 70
8
 71
3
 72
8
 73
4
 74
0
 40
0
 40
0
 40
0
 40
0
 40
1
 40
1
 40
1
 40
1
 10
89.688252
 20
221.276532
 30
0.0
 10
91.460255
 20
221.276532
 30
0.0
 10
92.639944
 20
220.095785
 30
0.0
 10
92.639944
 20
218.324841
 30
0.0
  0
SPLINE
  5
147
100
AcDbEntity
  8
text
 62
1
100
AcDbSpline
 70
8
 71
3
 72
8
 73
4
 74
0
 40
0
 40
0
 40
0
 40
0
 40
1
 40
1
 40
1
 40
1
 10
92.639944
 20
218.324841
 30
0.0
 10
92.639944
 20
216.554249
 30
0.0
 10
91.460255
 20
215.373149
 30
0.0
 10
89.688252
 20
215.373149
 30
0.0
  0
SPLINE
  5
148
100
AcDbEntity
  8
text
 62
1
100
AcDbSpline
 70
8
 71
3
 72
8
 73
4
 74
0
 40
0
 40
0
 40
0
 40
0
 40
1
 40
1
 40
1
 40
1
 10
89.688252
 20
215.373149
 30
0.0
 10
87.917308
 20
215.373149
 30
0.0
 10
86.736208
 20
216.554249
 30
0.0
 10
86.736208
 20
218.324841
 30
0.0
  0
LWPOLYLINE
  5
149
100
AcDbEntity
  8
text
 62
1
100
AcDbPolyline
 90
2
 70
0
 10
97.539675
 20
199.483688
 30
0.0
 10
97.539675
 20
201.845535
 30
0.0
  0
LWPOLYLINE
  5
14a
100
AcDbEntity
  8
text
 62
1
100
AcDbPolyline
 90
2
 70
0
 10
88.508563
 20
218.324841
 30
0.0
 10
90.869000
 20
218.324841
 30
0.0
  0
LWPOLYLINE
  5
14b
100
AcDbEntity
  8
text
 62
1
100
AcDbPolyline
 90
2
 70
0
 10
89.688252
 20
217.144093
 30
0.0
 10
89.688252
 20
219.505941
 30
0.0
  0
SPLINE
  5
14c
100
AcDbEntity
  8
text
 62
1
100
AcDbSpline
 70
8
 71
3
 72
8
 73
4
 74
0
 40
0
 40
0
 40
0
 40
0
 40
1
 40
1
 40
1
 40
1
 10
117.729852
 20
232.291953
 30
0.0
 10
117.729852
 20
234.062898
 30
0.0
 10
118.910952
 20
235.243645
 30
0.0
 10
120.681897
 20
235.243645
 30
0.0
  0
SPLINE
  5
14d
100
AcDbEntity
  8
text
 62
1
100
AcDbSpline
 70
8
 71
3
 72
8
 73
4
 74
0
 40
0
 40
0
 40
0
 40
0
 40
1
 40
1
 40
1
 40
1
 10
120.681897
 20
235.243645
 30
0.0
 10
122.453900
 20
235.243645
 30
0.0
 10
123.633588
 20
234.062898
 30
0.0
 10
123.633588
 20
232.291953
 30
0.0
  0
SPLINE
  5
14e
100
AcDbEntity
  8
text
 62
1
100
AcDbSpline
 70
8
 71
3
 72
8
 73
4
 74
0
 40
0
 40
0
 40
0
 40
0
 40
1
 40
1
 40
1
 40
1
 10
123.633588
 20
232.291953
 30
0.0
 10
123.633588
 20
230.521362
 30
0.0
 10
122.453900
 20
229.340262
 30
0.0
 10
120.681897
 20
229.340262
 30
0.0
  0
SPLINE
  5
14f
100
AcDbEntity
  8
text
 62
1
100
AcDbSpline
 70
8
 71
3
 72
8
 73
4
 74
0
 40
0
 40
0
 40
0
 40
0
 40
1
 40
1
 40
1
 40
1
 10
120.681897
 20
229.340262
 30
0.0
 10
118.910952
 20
229.340262
 30
0.0
 10
117.729852
 20
230.521362
 30
0.0
 10
117.729852
 20
232.291953
 30
0.0
  0
LWPOLYLINE
  5
150
100
AcDbEntity
  8
text
 62
1
100
AcDbPolyline
 90
6
 70
0
 10
120.918660
 20
143.797089
 30
0.0
 10
110.939047
 20
143.797089
 30
0.0
 10
110.939047
 20
271.959279
 30
0.0
 10
138.571839
 20
271.959279
 30
0.0
 10
138.571839
 20
143.797089
 30
0.0
 10
110.939047
 20
143.797089
 30
0.0
  0
LWPOLYLINE
  5
151
100
AcDbEntity
  8
text
 62
1
100
AcDbPolyline
 90
2
 70
0
 10
119.502208
 20
232.291953
 30
0.0
 10
121.862644
 20
232.291953
 30
0.0
  0
SPLINE
  5
152
100
AcDbEntity
  8
text
 62
1
100
AcDbSpline
 70
8
 71
3
 72
8
 73
4
 74
0
 40
0
 40
0
 40
0
 40
0
 40
1
 40
1
 40
1
 40
1
 10
117.780652
 20
184.093842
 30
0.0
 10
117.780652
 20
185.864786
 30
0.0
 10
118.961752
 20
187.045534
 30
0.0
 10
120.732697
 20
187.045534
 30
0.0
  0
SPLINE
  5
153
100
AcDbEntity
  8
text
 62
1
100
AcDbSpline
 70
8
 71
3
 72
8
 73
4
 74
0
 40
0
 40
0
 40
0
 40
0
 40
1
 40
1
 40
1
 40
1
 10
120.732697
 20
187.045534
 30
0.0
 10
122.504700
 20
187.045534
 30
0.0
 10
123.684388
 20
185.864786
 30
0.0
 10
123.684388
 20
184.093842
 30
0.0
  0
SPLINE
  5
154
100
AcDbEntity
  8
text
 62
1
100
AcDbSpline
 70
8
 71
3
 72
8
 73
4
 74
0
 40
0
 40
0
 40
0
 40
0
 40
1
 40
1
 40
1
 40
1
 10
123.684388
 20
184.093842
 30
0.0
 10
123.684388
 20
182.323250
 30
0.0
 10
122.504700
 20
181.142150
 30
0.0
 10
120.732697
 20
181.142150
 30
0.0
  0
SPLINE
  5
155
100
AcDbEntity
  8
text
 62
1
100
AcDbSpline
 70
8
 71
3
 72
8
 73
4
 74
0
 40
0
 40
0
 40
0
 40
0
 40
1
 40
1
 40
1
 40
1
 10
120.732697
 20
181.142150
 30
0.0
 10
118.961752
 20
181.142150
 30
0.0
 10
117.780652
 20
182.323250
 30
0.0
 10
117.780652
 20
184.093842
 30
0.0
  0
LWPOLYLINE
  5
156
100
AcDbEntity
  8
text
 62
1
100
AcDbPolyline
 90
2
 70
0
 10
120.681897
 20
231.111206
 30
0.0
 10
120.681897
 20
233.473053
 30
0.0
  0
LWPOLYLINE
  5
157
100
AcDbEntity
  8
text
 62
1
100
AcDbPolyline
 90
2
 70
0
 10
119.553008
 20
184.093842
 30
0.0
 10
121.913444
 20
184.093842
 30
0.0
  0
SPLINE
  5
158
100
AcDbEntity
  8
text
 62
1
100
AcDbSpline
 70
8
 71
3
 72
8
 73
4
 74
0
 40
0
 40
0
 40
0
 40
0
 40
1
 40
1
 40
1
 40
1
 10
125.632075
 20
200.664435
 30
0.0
 10
125.632075
 20
202.435379
 30
0.0
 10
126.813175
 20
203.616127
 30
0.0
 10
128.584119
 20
203.616127
 30
0.0
  0
SPLINE
  5
159
100
AcDbEntity
  8
text
 62
1
100
AcDbSpline
 70
8
 71
3
 72
8
 73
4
 74
0
 40
0
 40
0
 40
0
 40
0
 40
1
 40
1
 40
1
 40
1
 10
128.584119
 20
203.616127
 30
0.0
 10
130.356122
 20
203.616127
 30
0.0
 10
131.535811
 20
202.435379
 30
0.0
 10
131.535811
 20
200.664435
 30
0.0
  0
SPLINE
  5
15a
100
AcDbEntity
  8
text
 62
1
100
AcDbSpline
 70
8
 71
3
 72
8
 73
4
 74
0
 40
0
 40
0
 40
0
 40
0
 40
1
 40
1
 40
1
 40
1
 10
131.535811
 20
200.664435
 30
0.0
 10
131.535811
 20
198.893843
 30
0.0
 10
130.356122
 20
197.712743
 30
0.0
 10
128.584119
 20
197.712743
 30
0.0
  0
SPLINE
  5
15b
100
AcDbEntity
  8
text
 62
1
100
AcDbSpline
 70
8
 71
3
 72
8
 73
4
 74
0
 40
0
 40
0
 40
0
 40
0
 40
1
 40
1
 40
1
 40
1
 10
128.584119
 20
197.712743
 30
0.0
 10
126.813175
 20
197.712743
 30
0.0
 10
125.632075
 20
198.893843
 30
0.0
 10
125.632075
 20
200.664435
 30
0.0
  0
LWPOLYLINE
  5
15c
100
AcDbEntity
  8
text
 62
1
100
AcDbPolyline
 90
2
 70
0
 10
120.732697
 20
182.913095
 30
0.0
 10
120.732697
 20
185.274942
 30
0.0
  0
LWPOLYLINE
  5
15d
100
AcDbEntity
  8
text
 62
1
100
AcDbPolyline
 90
2
 70
0
 10
127.404430
 20
200.664435
 30
0.0
 10
129.764866
 20
200.664435
 30
0.0
  0
SPLINE
  5
15e
100
AcDbEntity
  8
text
 62
1
100
AcDbSpline
 70
8
 71
3
 72
8
 73
4
 74
0
 40
0
 40
0
 40
0
 40
0
 40
1
 40
1
 40
1
 40
1
 10
117.780652
 20
218.324841
 30
0.0
 10
117.780652
 20
220.095785
 30
0.0
 10
118.961752
 20
221.276532
 30
0.0
 10
120.732697
 20
221.276532
 30
0.0
  0
SPLINE
  5
15f
100
AcDbEntity
  8
text
 62
1
100
AcDbSpline
 70
8
 71
3
 72
8
 73
4
 74
0
 40
0
 40
0
 40
0
 40
0
 40
1
 40
1
 40
1
 40
1
 10
120.732697
 20
221.276532
 30
0.0
 10
122.504700
 20
221.276532
 30
0.0
 10
123.684388
 20
220.095785
 30
0.0
 10
123.684388
 20
218.324841
 30
0.0
  0
SPLINE
  5
160
100
AcDbEntity
  8
text
 62
1
100
AcDbSpline
 70
8
 71
3
 72
8
 73
4
 74
0
 40
0
 40
0
 40
0
 40
0
 40
1
 40
1
 40
1
 40
1
 10
123.684388
 20
218.324841
 30
0.0
 10
123.684388
 20
216.554249
 30
0.0
 10
122.504700
 20
215.373149
 30
0.0
 10
120.732697
 20
215.373149
 30
0.0
  0
SPLINE
  5
161
100
AcDbEntity
  8
text
 62
1
100
AcDbSpline
 70
8
 71
3
 72
8
 73
4
 74
0
 40
0
 40
0
 40
0
 40
0
 40
1
 40
1
 40
1
 40
1
 10
120.732697
 20
215.373149
 30
0.0
 10
118.961752
 20
215.373149
 30
0.0
 10
117.780652
 20
216.554249
 30
0.0
 10
117.780652
 20
218.324841
 30
0.0
  0
LWPOLYLINE
  5
162
100
AcDbEntity
  8
text
 62
1
100
AcDbPolyline
 90
2
 70
0
 10
128.584119
 20
199.483688
 30
0.0
 10
128.584119
 20
201.845535
 30
0.0
  0
LWPOLYLINE
  5
163
100
AcDbEntity
  8
text
 62
1
100
AcDbPolyline
 90
2
 70
0
 10
119.553008
 20
218.324841
 30
0.0
 10
121.913444
 20
218.324841
 30
0.0
  0
LWPOLYLINE
  5
164
100
AcDbEntity
  8
text
 62
1
100
AcDbPolyline
 90
2
 70
0
 10
120.732697
 20
217.144093
 30
0.0
 10
120.732697
 20
219.505941
 30
0.0
  0
SPLINE
  5
165
100
AcDbEntity
  8
text
 62
1
100
AcDbSpline
 70
8
 71
3
 72
8
 73
4
 74
0
 40
0
 40
0
 40
0
 40
0
 40
1
 40
1
 40
1
 40
1
 10
149.903186
 20
232.291953
 30
0.0
 10
149.903186
 20
234.062898
 30
0.0
 10
151.084286
 20
235.243645
 30
0.0
 10
152.855230
 20
235.243645
 30
0.0
  0
SPLINE
  5
166
100
AcDbEntity
  8
text
 62
1
100
AcDbSpline
 70
8
 71
3
 72
8
 73
4
 74
0
 40
0
 40
0
 40
0
 40
0
 40
1
 40
1
 40
1
 40
1
 10
152.855230
 20
235.243645
 30
0.0
 10
154.627233
 20
235.243645
 30
0.0
 10
155.806922
 20
234.062898
 30
0.0
 10
155.806922
 20
232.291953
 30
0.0
  0
SPLINE
  5
167
100
AcDbEntity
  8
text
 62
1
100
AcDbSpline
 70
8
 71
3
 72
8
 73
4
 74
0
 40
0
 40
0
 40
0
 40
0
 40
1
 40
1
 40
1
 40
1
 10
155.806922
 20
232.291953
 30
0.0
 10
155.806922
 20
230.521362
 30
0.0
 10
154.627233
 20
229.340262
 30
0.0
 10
152.855230
 20
229.340262
 30
0.0
  0
SPLINE
  5
168
100
AcDbEntity
  8
text
 62
1
100
AcDbSpline
 70
8
 71
3
 72
8
 73
4
 74
0
 40
0
 40
0
 40
0
 40
0
 40
1
 40
1
 40
1
 40
1
 10
152.855230
 20
229.340262
 30
0.0
 10
151.084286
 20
229.340262
 30
0.0
 10
149.903186
 20
230.521362
 30
0.0
 10
149.903186
 20
232.291953
 30
0.0
  0
LWPOLYLINE
  5
169
100
AcDbEntity
  8
text
 62
1
100
AcDbPolyline
 90
6
 70
0
 10
153.091993
 20
143.797089
 30
0.0
 10
143.112380
 20
143.797089
 30
0.0
 10
143.112380
 20
271.959279
 30
0.0
 10
170.745172
 20
271.959279
 30
0.0
 10
170.745172
 20
143.797089
 30
0.0
 10
143.112380
 20
143.797089
 30
0.0
  0
LWPOLYLINE
  5
16a
100
AcDbEntity
  8
text
 62
1
100
AcDbPolyline
 90
2
 70
0
 10
151.675541
 20
232.291953
 30
0.0
 10
154.035977
 20
232.291953
 30
0.0
  0
SPLINE
  5
16b
100
AcDbEntity
  8
text
 62
1
100
AcDbSpline
 70
8
 71
3
 72
8
 73
4
 74
0
 40
0
 40
0
 40
0
 40
0
 40
1
 40
1
 40
1
 40
1
 10
149.953986
 20
184.093842
 30
0.0
 10
149.953986
 20
185.864786
 30
0.0
 10
151.135086
 20
187.045534
 30
0.0
 10
152.906030
 20
187.045534
 30
0.0
  0
SPLINE
  5
16c
100
AcDbEntity
  8
text
 62
1
100
AcDbSpline
 70
8
 71
3
 72
8
 73
4
 74
0
 40
0
 40
0
 40
0
 40
0
 40
1
 40
1
 40
1
 40
1
 10
152.906030
 20
187.045534
 30
0.0
 10
154.678033
 20
187.045534
 30
0.0
 10
155.857722
 20
185.864786
 30
0.0
 10
155.857722
 20
184.093842
 30
0.0
  0
SPLINE
  5
16d
100
AcDbEntity
  8
text
 62
1
100
AcDbSpline
 70
8
 71
3
 72
8
 73
4
 74
0
 40
0
 40
0
 40
0
 40
0
 40
1
 40
1
 40
1
 40
1
 10
155.857722
 20
184.093842
 30
0.0
 10
155.857722
 20
182.323250
 30
0.0
 10
154.678033
 20
181.142150
 30
0.0
 10
152.906030
 20
181.142150
 30
0.0
  0
SPLINE
  5
16e
100
AcDbEntity
  8
text
 62
1
100
AcDbSpline
 70
8
 71
3
 72
8
 73
4
 74
0
 40
0
 40
0
 40
0
 40
0
 40
1
 40
1
 40
1
 40
1
 10
152.906030
 20
181.142150
 30
0.0
 10
151.135086
 20
181.142150
 30
0.0
 10
149.953986
 20
182.323250
 30
0.0
 10
149.953986
 20
184.093842
 30
0.0
  0
LWPOLYLINE
  5
16f
100
AcDbEntity
  8
text
 62
1
100
AcDbPolyline
 90
2
 70
0
 10
152.855230
 20
231.111206
 30
0.0
 10
152.855230
 20
233.473053
 30
0.0
  0
LWPOLYLINE
  5
170
100
AcDbEntity
  8
text
 62
1
100
AcDbPolyline
 90
2
 70
0
 10
151.726341
 20
184.093842
 30
0.0
 10
154.086777
 20
184.093842
 30
0.0
  0
SPLINE
  5
171
100
AcDbEntity
  8
text
 62
1
100
AcDbSpline
 70
8
 71
3
 72
8
 73
4
 74
0
 40
0
 40
0
 40
0
 40
0
 40
1
 40
1
 40
1
 40
1
 10
157.805408
 20
200.664435
 30
0.0
 10
157.805408
 20
202.435379
 30
0.0
 10
158.986508
 20
203.616127
 30
0.0
 10
160.757452
 20
203.616127
 30
0.0
  0
SPLINE
  5
172
100
AcDbEntity
  8
text
 62
1
100
AcDbSpline
 70
8
 71
3
 72
8
 73
4
 74
0
 40
0
 40
0
 40
0
 40
0
 40
1
 40
1
 40
1
 40
1
 10
160.757452
 20
203.616127
 30
0.0
 10
162.529455
 20
203.616127
 30
0.0
 10
163.709144
 20
202.435379
 30
0.0
 10
163.709144
 20
200.664435
 30
0.0
  0
SPLINE
  5
173
100
AcDbEntity
  8
text
 62
1
100
AcDbSpline
 70
8
 71
3
 72
8
 73
4
 74
0
 40
0
 40
0
 40
0
 40
0
 40
1
 40
1
 40
1
 40
1
 10
163.709144
 20
200.664435
 30
0.0
 10
163.709144
 20
198.893843
 30
0.0
 10
162.529455
 20
197.712743
 30
0.0
 10
160.757452
 20
197.712743
 30
0.0
  0
SPLINE
  5
174
100
AcDbEntity
  8
text
 62
1
100
AcDbSpline
 70
8
 71
3
 72
8
 73
4
 74
0
 40
0
 40
0
 40
0
 40
0
 40
1
 40
1
 40
1
 40
1
 10
160.757452
 20
197.712743
 30
0.0
 10
158.986508
 20
197.712743
 30
0.0
 10
157.805408
 20
198.893843
 30
0.0
 10
157.805408
 20
200.664435
 30
0.0
  0
LWPOLYLINE
  5
175
100
AcDbEntity
  8
text
 62
1
100
AcDbPolyline
 90
2
 70
0
 10
152.906030
 20
182.913095
 30
0.0
 10
152.906030
 20
185.274942
 30
0.0
  0
LWPOLYLINE
  5
176
100
AcDbEntity
  8
text
 62
1
100
AcDbPolyline
 90
2
 70
0
 10
159.577763
 20
200.664435
 30
0.0
 10
161.938200
 20
200.664435
 30
0.0
  0
SPLINE
  5
177
100
AcDbEntity
  8
text
 62
1
100
AcDbSpline
 70
8
 71
3
 72
8
 73
4
 74
0
 40
0
 40
0
 40
0
 40
0
 40
1
 40
1
 40
1
 40
1
 10
149.953986
 20
218.324841
 30
0.0
 10
149.953986
 20
220.095785
 30
0.0
 10
151.135086
 20
221.276532
 30
0.0
 10
152.906030
 20
221.276532
 30
0.0
  0
SPLINE
  5
178
100
AcDbEntity
  8
text
 62
1
100
AcDbSpline
 70
8
 71
3
 72
8
 73
4
 74
0
 40
0
 40
0
 40
0
 40
0
 40
1
 40
1
 40
1
 40
1
 10
152.906030
 20
221.276532
 30
0.0
 10
154.678033
 20
221.276532
 30
0.0
 10
155.857722
 20
220.095785
 30
0.0
 10
155.857722
 20
218.324841
 30
0.0
  0
SPLINE
  5
179
100
AcDbEntity
  8
text
 62
1
100
AcDbSpline
 70
8
 71
3
 72
8
 73
4
 74
0
 40
0
 40
0
 40
0
 40
0
 40
1
 40
1
 40
1
 40
1
 10
155.857722
 20
218.324841
 30
0.0
 10
155.857722
 20
216.554249
 30
0.0
 10
154.678033
 20
215.373149
 30
0.0
 10
152.906030
 20
215.373149
 30
0.0
  0
SPLINE
  5
17a
100
AcDbEntity
  8
text
 62
1
100
AcDbSpline
 70
8
 71
3
 72
8
 73
4
 74
0
 40
0
 40
0
 40
0
 40
0
 40
1
 40
1
 40
1
 40
1
 10
152.906030
 20
215.373149
 30
0.0
 10
151.135086
 20
215.373149
 30
0.0
 10
149.953986
 20
216.554249
 30
0.0
 10
149.953986
 20
218.324841
 30
0.0
  0
LWPOLYLINE
  5
17b
100
AcDbEntity
  8
text
 62
1
100
AcDbPolyline
 90
2
 70
0
 10
160.757452
 20
199.483688
 30
0.0
 10
160.757452
 20
201.845535
 30
0.0
  0
LWPOLYLINE
  5
17c
100
AcDbEntity
  8
text
 62
1
100
AcDbPolyline
 90
2
 70
0
 10
151.726341
 20
218.324841
 30
0.0
 10
154.086777
 20
218.324841
 30
0.0
  0
LWPOLYLINE
  5
17d
100
AcDbEntity
  8
text
 62
1
100
AcDbPolyline
 90
2
 70
0
 10
152.906030
 20
217.144093
 30
0.0
 10
152.906030
 20
219.505941
 30
0.0
  0
SPLINE
  5
17e
100
AcDbEntity
  8
text
 62
1
100
AcDbSpline
 70
8
 71
3
 72
8
 73
4
 74
0
 40
0
 40
0
 40
0
 40
0
 40
1
 40
1
 40
1
 40
1
 10
180.947630
 20
232.291953
 30
0.0
 10
180.947630
 20
234.062898
 30
0.0
 10
182.128730
 20
235.243645
 30
0.0
 10
183.899675
 20
235.243645
 30
0.0
  0
SPLINE
  5
17f
100
AcDbEntity
  8
text
 62
1
100
AcDbSpline
 70
8
 71
3
 72
8
 73
4
 74
0
 40
0
 40
0
 40
0
 40
0
 40
1
 40
1
 40
1
 40
1
 10
183.899675
 20
235.243645
 30
0.0
 10
185.671677
 20
235.243645
 30
0.0
 10
186.851366
 20
234.062898
 30
0.0
 10
186.851366
 20
232.291953
 30
0.0
  0
SPLINE
  5
180
100
AcDbEntity
  8
text
 62
1
100
AcDbSpline
 70
8
 71
3
 72
8
 73
4
 74
0
 40
0
 40
0
 40
0
 40
0
 40
1
 40
1
 40
1
 40
1
 10
186.851366
 20
232.291953
 30
0.0
 10
186.851366
 20
230.521362
 30
0.0
 10
185.671677
 20
229.340262
 30
0.0
 10
183.899675
 20
229.340262
 30
0.0
  0
SPLINE
  5
181
100
AcDbEntity
  8
text
 62
1
100
AcDbSpline
 70
8
 71
3
 72
8
 73
4
 74
0
 40
0
 40
0
 40
0
 40
0
 40
1
 40
1
 40
1
 40
1
 10
183.899675
 20
229.340262
 30
0.0
 10
182.128730
 20
229.340262
 30
0.0
 10
180.947630
 20
230.521362
 30
0.0
 10
180.947630
 20
232.291953
 30
0.0
  0
LWPOLYLINE
  5
182
100
AcDbEntity
  8
text
 62
1
100
AcDbPolyline
 90
6
 70
0
 10
184.136438
 20
143.797089
 30
0.0
 10
174.156825
 20
143.797089
 30
0.0
 10
174.156825
 20
271.959279
 30
0.0
 10
201.789617
 20
271.959279
 30
0.0
 10
201.789617
 20
143.797089
 30
0.0
 10
174.156825
 20
143.797089
 30
0.0
  0
LWPOLYLINE
  5
183
100
AcDbEntity
  8
text
 62
1
100
AcDbPolyline
 90
2
 70
0
 10
182.719986
 20
232.291953
 30
0.0
 10
185.080422
 20
232.291953
 30
0.0
  0
SPLINE
  5
184
100
AcDbEntity
  8
text
 62
1
100
AcDbSpline
 70
8
 71
3
 72
8
 73
4
 74
0
 40
0
 40
0
 40
0
 40
0
 40
1
 40
1
 40
1
 40
1
 10
180.998430
 20
184.093842
 30
0.0
 10
180.998430
 20
185.864786
 30
0.0
 10
182.179530
 20
187.045534
 30
0.0
 10
183.950475
 20
187.045534
 30
0.0
  0
SPLINE
  5
185
100
AcDbEntity
  8
text
 62
1
100
AcDbSpline
 70
8
 71
3
 72
8
 73
4
 74
0
 40
0
 40
0
 40
0
 40
0
 40
1
 40
1
 40
1
 40
1
 10
183.950475
 20
187.045534
 30
0.0
 10
185.722477
 20
187.045534
 30
0.0
 10
186.902166
 20
185.864786
 30
0.0
 10
186.902166
 20
184.093842
 30
0.0
  0
SPLINE
  5
186
100
AcDbEntity
  8
text
 62
1
100
AcDbSpline
 70
8
 71
3
 72
8
 73
4
 74
0
 40
0
 40
0
 40
0
 40
0
 40
1
 40
1
 40
1
 40
1
 10
186.902166
 20
184.093842
 30
0.0
 10
186.902166
 20
182.323250
 30
0.0
 10
185.722477
 20
181.142150
 30
0.0
 10
183.950475
 20
181.142150
 30
0.0
  0
SPLINE
  5
187
100
AcDbEntity
  8
text
 62
1
100
AcDbSpline
 70
8
 71
3
 72
8
 73
4
 74
0
 40
0
 40
0
 40
0
 40
0
 40
1
 40
1
 40
1
 40
1
 10
183.950475
 20
181.142150
 30
0.0
 10
182.179530
 20
181.142150
 30
0.0
 10
180.998430
 20
182.323250
 30
0.0
 10
180.998430
 20
184.093842
 30
0.0
  0
LWPOLYLINE
  5
188
100
AcDbEntity
  8
text
 62
1
100
AcDbPolyline
 90
2
 70
0
 10
183.899675
 20
231.111206
 30
0.0
 10
183.899675
 20
233.473053
 30
0.0
  0
LWPOLYLINE
  5
189
100
AcDbEntity
  8
text
 62
1
100
AcDbPolyline
 90
2
 70
0
 10
182.770786
 20
184.093842
 30
0.0
 10
185.131222
 20
184.093842
 30
0.0
  0
SPLINE
  5
18a
100
AcDbEntity
  8
text
 62
1
100
AcDbSpline
 70
8
 71
3
 72
8
 73
4
 74
0
 40
0
 40
0
 40
0
 40
0
 40
1
 40
1
 40
1
 40
1
 10
188.849852
 20
200.664435
 30
0.0
 10
188.849852
 20
202.435379
 30
0.0
 10
190.030952
 20
203.616127
 30
0.0
 10
191.801897
 20
203.616127
 30
0.0
  0
SPLINE
  5
18b
100
AcDbEntity
  8
text
 62
1
100
AcDbSpline
 70
8
 71
3
 72
8
 73
4
 74
0
 40
0
 40
0
 40
0
 40
0
 40
1
 40
1
 40
1
 40
1
 10
191.801897
 20
203.616127
 30
0.0
 10
193.573900
 20
203.616127
 30
0.0
 10
194.753588
 20
202.435379
 30
0.0
 10
194.753588
 20
200.664435
 30
0.0
  0
SPLINE
  5
18c
100
AcDbEntity
  8
text
 62
1
100
AcDbSpline
 70
8
 71
3
 72
8
 73
4
 74
0
 40
0
 40
0
 40
0
 40
0
 40
1
 40
1
 40
1
 40
1
 10
194.753588
 20
200.664435
 30
0.0
 10
194.753588
 20
198.893843
 30
0.0
 10
193.573900
 20
197.712743
 30
0.0
 10
191.801897
 20
197.712743
 30
0.0
  0
SPLINE
  5
18d
100
AcDbEntity
  8
text
 62
1
100
AcDbSpline
 70
8
 71
3
 72
8
 73
4
 74
0
 40
0
 40
0
 40
0
 40
0
 40
1
 40
1
 40
1
 40
1
 10
191.801897
 20
197.712743
 30
0.0
 10
190.030952
 20
197.712743
 30
0.0
 10
188.849852
 20
198.893843
 30
0.0
 10
188.849852
 20
200.664435
 30
0.0
  0
LWPOLYLINE
  5
18e
100
AcDbEntity
  8
text
 62
1
100
AcDbPolyline
 90
2
 70
0
 10
183.950475
 20
182.913095
 30
0.0
 10
183.950475
 20
185.274942
 30
0.0
  0
LWPOLYLINE
  5
18f
100
AcDbEntity
  8
text
 62
1
100
AcDbPolyline
 90
2
 70
0
 10
190.622208
 20
200.664435
 30
0.0
 10
192.982644
 20
200.664435
 30
0.0
  0
SPLINE
  5
190
100
AcDbEntity
  8
text
 62
1
100
AcDbSpline
 70
8
 71
3
 72
8
 73
4
 74
0
 40
0
 40
0
 40
0
 40
0
 40
1
 40
1
 40
1
 40
1
 10
180.998430
 20
218.324841
 30
0.0
 10
180.998430
 20
220.095785
 30
0.0
 10
182.179530
 20
221.276532
 30
0.0
 10
183.950475
 20
221.276532
 30
0.0
  0
SPLINE
  5
191
100
AcDbEntity
  8
text
 62
1
100
AcDbSpline
 70
8
 71
3
 72
8
 73
4
 74
0
 40
0
 40
0
 40
0
 40
0
 40
1
 40
1
 40
1
 40
1
 10
183.950475
 20
221.276532
 30
0.0
 10
185.722477
 20
221.276532
 30
0.0
 10
186.902166
 20
220.095785
 30
0.0
 10
186.902166
 20
218.324841
 30
0.0
  0
SPLINE
  5
192
100
AcDbEntity
  8
text
 62
1
100
AcDbSpline
 70
8
 71
3
 72
8
 73
4
 74
0
 40
0
 40
0
 40
0
 40
0
 40
1
 40
1
 40
1
 40
1
 10
186.902166
 20
218.324841
 30
0.0
 10
186.902166
 20
216.554249
 30
0.0
 10
185.722477
 20
215.373149
 30
0.0
 10
183.950475
 20
215.373149
 30
0.0
  0
SPLINE
  5
193
100
AcDbEntity
  8
text
 62
1
100
AcDbSpline
 70
8
 71
3
 72
8
 73
4
 74
0
 40
0
 40
0
 40
0
 40
0
 40
1
 40
1
 40
1
 40
1
 10
183.950475
 20
215.373149
 30
0.0
 10
182.179530
 20
215.373149
 30
0.0
 10
180.998430
 20
216.554249
 30
0.0
 10
180.998430
 20
218.324841
 30
0.0
  0
LWPOLYLINE
  5
194
100
AcDbEntity
  8
text
 62
1
100
AcDbPolyline
 90
2
 70
0
 10
191.801897
 20
199.483688
 30
0.0
 10
191.801897
 20
201.845535
 30
0.0
  0
LWPOLYLINE
  5
195
100
AcDbEntity
  8
text
 62
1
100
AcDbPolyline
 90
2
 70
0
 10
182.770786
 20
218.324841
 30
0.0
 10
185.131222
 20
218.324841
 30
0.0
  0
LWPOLYLINE
  5
196
100
AcDbEntity
  8
text
 62
1
100
AcDbPolyline
 90
2
 70
0
 10
183.950475
 20
217.144093
 30
0.0
 10
183.950475
 20
219.505941
 30
0.0
  0
ENDSEC
  0
SECTION
  2
OBJECTS
  0
DICTIONARY
  5
C
330
0
100
AcDbDictionary
  3
ACAD_GROUP
350
D
  3
ACAD_MLINESTYLE
350
17
  0
DICTIONARY
  5
D
330
C
100
AcDbDictionary
  0
DICTIONARY
  5
1A
330
C
100
AcDbDictionary
  0
DICTIONARY
  5
17
330
C
100
AcDbDictionary
  3
STANDARD
350
18
  0
DICTIONARY
  5
19
330
C
100
AcDbDictionary
  0
ENDSEC
  0
EOF
